<svg xmlns="http://www.w3.org/2000/svg" fill="none" viewBox="0 0 240 240"><g fill-rule="evenodd" clip-rule="evenodd" filter="url(#a)"><path fill="url(#b)" d="M145 33h50v25h25v100h-25v50h-25v-25h-25v25h-25v-25H95v-25H20v-50h25V83h50v25h50V83h-25V58h25V33ZM95 183v25H70v-25h25Z"/><path fill="#A0FF63" d="M195 33h-25v25h25v25h25V58h-25V33Z"/><path fill="#91BD14" d="M170 58h25v50h-50V83h25V58Z"/><path fill="#000" d="M45 83H20v25h25V83Zm50 25H70v25h25v-25Z"/></g><defs><linearGradient id="b" x1="220" x2="20" y1="33" y2="208" gradientUnits="userSpaceOnUse"><stop stop-color="#A0FF63"/><stop offset="0.691265" stop-color="#FFE100"/></linearGradient><filter id="a" width="216" height="191" x="16" y="29" color-interpolation-filters="sRGB" filterUnits="userSpaceOnUse"><feFlood flood-opacity="0" result="BackgroundImageFix"/><feColorMatrix in="SourceAlpha" result="hardAlpha" values="0 0 0 0 0 0 0 0 0 0 0 0 0 0 0 0 0 0 127 0"/><feOffset dx="4" dy="4"/><feGaussianBlur stdDeviation="4"/><feComposite in2="hardAlpha" operator="out"/><feColorMatrix values="0 0 0 0 0 0 0 0 0 0 0 0 0 0 0 0 0 0 0.15 0"/><feBlend in2="BackgroundImageFix" result="effect1_dropShadow_420_3"/><feBlend in="SourceGraphic" in2="effect1_dropShadow_420_3" result="shape"/></filter></defs></svg>
